PathFileType	4	(X/Y/Z)	RBDS08\RBDS08runT25.trc
DataRate	CameraRate	NumFrames	NumMarkers	Units	OrigDataRate	OrigDataStartFrame	OrigNumFrames
150.000000	150.000000	4	33	mm	150.000000	2812	4500
Frame#	Time	L.ASIS			L.Heel.Bottom			L.Heel.Lateral			L.Heel.Top			L.Iliac.Crest			L.MT1			L.MT5			L.PSIS			L.Shank.Bottom.Lateral			L.Shank.Bottom.Medial			L.Shank.Top.Lateral			L.Shank.Top.Medial			L.Thigh.Bottom.Lateral			L.Thigh.Bottom.Medial			L.Thigh.Top.Lateral			L.Thigh.Top.Medial			R.ASIS			R.ASY			R.Heel.Bottom			R.Heel.Lateral			R.Heel.Top			R.Iliac.Crest			R.MT1			R.MT5			R.PSIS			R.Shank.Bottom.Lateral			R.Shank.Bottom.Medial			R.Shank.Top.Lateral			R.Shank.Top.Medial			R.Thigh.Bottom.Lateral			R.Thigh.Bottom.Medial			R.Thigh.Top.Lateral			R.Thigh.Top.Medial			
		X1	Y1	Z1	X2	Y2	Z2	X3	Y3	Z3	X4	Y4	Z4	X5	Y5	Z5	X6	Y6	Z6	X7	Y7	Z7	X8	Y8	Z8	X9	Y9	Z9	X10	Y10	Z10	X11	Y11	Z11	X12	Y12	Z12	X13	Y13	Z13	X14	Y14	Z14	X15	Y15	Z15	X16	Y16	Z16	X17	Y17	Z17	X18	Y18	Z18	X19	Y19	Z19	X20	Y20	Z20	X21	Y21	Z21	X22	Y22	Z22	X23	Y23	Z23	X24	Y24	Z24	X25	Y25	Z25	X26	Y26	Z26	X27	Y27	Z27	X28	Y28	Z28	X29	Y29	Z29	X30	Y30	Z30	X31	Y31	Z31	X32	Y32	Z32	X33	Y33	Z33	

2813	18.74666666666667	2190.175800733857	972.4067132455834	892.1197254386923	1997.412688074541	36.04524091527654	949.6788524583297	2034.891180544219	55.33218294861774	911.1439005634187	2013.25873695717	84.99546987905909	958.9234626241562	2116.139544077844	1022.033412103904	869.1547468711619	2217.270405640214	50.97669358494409	1019.493255514139	2194.240149591415	41.54758404870657	909.6569278569895	2022.194075462908	992.4996868067904	976.7933438821838	2110.828951478728	150.1221198272934	910.3257806168764	2070.314032282541	168.7115274824978	936.2739269318643	2133.827787734889	224.3896565906957	887.3910114289337	2096.410188610275	247.0030498821154	918.0540187918623	2196.449874001074	603.0020562077827	837.2455595932352	2144.159157320699	581.1193796003305	883.1611372846576	2146.993268453989	701.521892442793	828.995566974678	2100.63756035834	682.5870874502239	877.4618952978332	2202.279835698172	937.2468831189378	1125.466680779735	1799.134586507074	296.4318596169064	1086.361159088114	1717.932694082123	473.1123899835895	1074.661405634447	1739.195460395046	451.0813549004131	1117.734924695069	1767.772178061601	465.8648185635154	1071.161227703722	2150.568953266087	1006.748239479325	1160.179602231748	1746.962454848481	247.8077108908186	1050.509396531377	1745.445615510706	288.0424985404725	1152.561096221259	2030.508413123345	982.8445199348093	1073.39083685367	1874.257331439891	430.156921023674	1120.705399676472	1870.562331767141	457.0208083741422	1073.06268341171	1953.339328951711	450.2737191178797	1122.986998538892	1949.363139597568	473.3043213760042	1074.772214026596	2184.072148116113	528.8588070571848	1140.818158078339	2130.818477493126	520.9571866515179	1091.414199915381	2150.263034519057	632.6062911619219	1159.392928205068	2098.237713061408	623.7915360835797	1115.357727732663	
2814	18.75333333333333	2188.556154730597	972.141893291559	892.1806452061999	1980.64292478851	36.31881811173513	949.610959238564	2018.170582870885	55.53353342411108	911.0413090559481	1996.496583295236	85.30358058505705	958.727116483862	2113.604995748137	1021.997289855401	869.354112839287	2200.594969437248	50.83563610660985	1019.181962590037	2177.445114951739	41.36559943954407	909.4415628353127	2021.074249631388	993.0694784480062	977.284802084084	2095.608438757307	149.9738318423896	909.8949017672445	2055.391365893651	169.2837090133906	935.7584511585642	2119.871149346067	223.7458560417942	886.8007759802131	2082.83436294766	247.0711386570913	917.3323431648384	2189.09213565509	601.6065389634572	836.6609539350515	2136.083133010485	580.51204731441	882.0837824911762	2141.507011139406	701.125939533733	828.7427263862046	2094.777670058497	682.8731278549653	877.0903629120273	2200.97451265714	937.4676986637648	1125.857669982878	1814.482308759056	296.7437939143663	1087.364002026303	1729.928962396859	471.6792507592908	1076.393045370573	1752.450439993499	450.3952158437488	1119.028473293415	1779.787317526506	465.1692851914617	1071.916937837402	2148.447637116387	1007.019752910016	1160.797881833747	1762.539023344482	246.858385672222	1052.702875675096	1762.34700955632	287.5947396764427	1154.564321409967	2029.418666025038	983.1237081557114	1073.796974585302	1887.815959919831	430.5713618358967	1121.154465510125	1883.707510641565	457.4644062818734	1073.548303622493	1966.811370771839	451.1007755458303	1123.014924141758	1962.493446493067	474.1352412214634	1074.845290542067	2194.294749656973	530.3894524680629	1140.448542082889	2141.136962608531	520.6854574519815	1091.282965496757	2157.016421102023	632.96655428256	1159.33735759895	2105.121134149743	622.3247080139713	1115.643879182169	
2815	18.76	2187.116967026991	972.1158270199853	892.3303622485938	1963.803057637696	36.64828314977493	949.5193191736369	2001.385882427601	55.73135422202311	910.9254661949212	1979.675357847629	85.66968431471574	958.503112141356	2111.744047885458	1022.694350512244	869.453220859864	2183.876397000594	50.62265411373821	1018.901126142082	2160.615747715398	41.1421822186048	909.2233959578078	2020.103780842326	994.0930354183125	977.6351881878188	2080.216721512559	149.9842266177486	909.4849372591264	2040.282332012988	169.9447310205217	935.2834793406344	2105.620603931654	223.3069707551569	886.2694177125833	2068.934832005949	247.2670603510284	916.6918207586835	2181.475603017038	600.5772116627955	836.1488312210896	2127.644298372262	580.2989171670059	880.9335166054494	2135.856296215628	701.1086376497144	828.5128910824001	2088.665206598071	683.5402713415697	876.625242413862	2199.840004026943	938.3566766889578	1126.198266197525	1830.249799353928	296.2956223134921	1088.308573969376	1741.460749416683	468.9186930210104	1077.824914983785	1765.239470693007	448.5130430969184	1120.056871089329	1791.335403265005	463.4152494668375	1072.458826222113	2146.579356388123	1007.877993031666	1161.328167306174	1778.918707410166	244.8767412742361	1054.718147265482	1779.555417759715	286.1521905059653	1156.376609545599	2028.450186506047	983.8741090343633	1074.096430139253	1901.063019191924	430.567327402673	1121.457368185466	1896.44564921557	457.3792538193388	1073.842046455873	1979.860011199263	451.9069721961156	1122.903448945184	1975.123249158667	474.8360128643207	1074.747065939601	2204.569195047835	532.9390287575952	1140.240563056952	2151.422224756469	521.3802499947243	1091.470624207143	2163.922048027851	634.2465571761513	1159.466157128519	2112.105189679488	621.7299485615524	1116.253017498045	
2816	18.76666666666667	2185.848545092796	972.338145188068	892.5360378540988	1946.914325067737	37.06048367230017	949.4014009944696	1984.557783770873	55.96071457278212	910.7973569987738	1962.814980773161	86.1173093660893	958.2554404980384	2110.57377051483	1024.058322932464	869.4766266744551	2167.111799084952	50.39147448388105	1018.665148659045	2143.755078913717	40.91967802587637	909.0219867926515	2019.272513709776	995.5097548058354	977.9041625691087	2064.683621272183	150.1978527031659	909.1166024754355	2025.003775685396	170.7420013454062	934.8556298762772	2091.121939571186	223.1260970214536	885.8250101652221	2054.741641327353	247.6439977383748	916.1516345184042	2173.603480186403	599.9153402715821	835.7844906152934	2118.907734581361	580.5166699790695	879.8764720800956	2130.042610719258	701.4522618367162	828.3660735219837	2082.337499636541	684.6044058749441	876.1811361457854	2198.92273334673	939.8312701287713	1126.447640467789	1846.366653518668	295.1113440812676	1089.187962483504	1752.552325401645	464.8334908917284	1078.959100205262	1777.549476151547	445.4211340890376	1120.839746060218	1802.424954163247	460.6037625134546	1072.814132356259	2145.060792633199	1009.258863342254	1161.767265927438	1796.063479110019	241.9260101219848	1056.532600982577	1796.993320827555	283.7566240438593	1157.988886526843	2027.617569289469	985.0650477237295	1074.336700628918	1913.964003277772	430.1343773119551	1121.626616394975	1908.743673886068	456.7514889865574	1073.956554278149	1992.434831878868	452.6757555854909	1122.670161546188	1987.204527176239	475.383597412631	1074.491745075393	2214.796638082747	536.4793385668546	1140.191347383766	2161.59201718572	523.0261770065188	1091.962651908881	2170.929655120432	636.4359747963505	1159.76183559794	2119.139461316247	622.0154651854647	1117.15782762615	
